M48
; DRILL file {KiCad 8.0.5} date 2025-04-21T16:14:12+0530
; FORMAT={-:-/ absolute / inch / decimal}
; #@! TF.CreationDate,2025-04-21T16:14:12+05:30
; #@! TF.GenerationSoftware,Kicad,Pcbnew,8.0.5
; #@! TF.FileFunction,Plated,1,2,PTH
FMAT,2
INCH
; #@! TA.AperFunction,Plated,PTH,ViaDrill
T1C0.0157
; #@! TA.AperFunction,Plated,PTH,ComponentDrill
T2C0.0315
; #@! TA.AperFunction,Plated,PTH,ComponentDrill
T3C0.0354
; #@! TA.AperFunction,Plated,PTH,ComponentDrill
T4C0.0374
; #@! TA.AperFunction,Plated,PTH,ComponentDrill
T5C0.0394
%
G90
G05
T1
X5.1654Y-4.4449
X5.1969Y-2.063
X5.3287Y-4.3051
X5.4803Y-2.061
X5.622Y-3.685
X5.7618Y-4.0886
X5.8346Y-3.4469
X5.8366Y-3.813
X5.8465Y-4.3346
X5.8917Y-1.9862
X5.9213Y-4.1358
X6.0138Y-4.2126
X6.0512Y-3.935
X6.0551Y-2.3406
X6.1142Y-4.3819
X6.6516Y-3.0354
X6.6516Y-3.2323
X6.7402Y-2.9685
X6.7402Y-3.1457
X6.7618Y-4.2539
T2
X5.1654Y-3.9378
X5.1654Y-4.3378
T3
X5.5126Y-3.0772
X5.5126Y-3.1772
X5.5126Y-3.2772
X5.5126Y-3.3772
X5.5126Y-3.4772
X5.5126Y-3.5772
X5.5126Y-3.6772
X5.5126Y-3.7772
X5.5126Y-3.8772
X5.5126Y-3.9772
X5.5126Y-4.0772
X5.5126Y-4.1772
X5.5126Y-4.2772
X5.5126Y-4.3772
X5.5126Y-4.4772
X5.5126Y-4.5772
X5.5126Y-4.6772
X5.5126Y-4.7772
X5.5126Y-4.8772
X6.4126Y-3.0772
X6.4126Y-3.1772
X6.4126Y-3.2772
X6.4126Y-3.3772
X6.4126Y-3.4772
X6.4126Y-3.5772
X6.4126Y-3.6772
X6.4126Y-3.7772
X6.4126Y-3.8772
X6.4126Y-3.9772
X6.4126Y-4.0772
X6.4126Y-4.1772
X6.4126Y-4.2772
X6.4126Y-4.3772
X6.4126Y-4.4772
X6.4126Y-4.5772
X6.4126Y-4.6772
X6.4126Y-4.7772
X6.4126Y-4.8772
X6.5126Y-3.0772
X6.5126Y-3.1772
X6.5126Y-3.2772
X6.5126Y-3.3772
X6.5126Y-3.4772
X6.5126Y-3.5772
X6.5126Y-3.6772
X6.5126Y-3.7772
X6.5126Y-3.8772
X6.5126Y-3.9772
X6.5126Y-4.0772
X6.5126Y-4.1772
X6.5126Y-4.2772
X6.5126Y-4.3772
X6.5126Y-4.4772
X6.5126Y-4.5772
X6.5126Y-4.6772
X6.5126Y-4.7772
X6.5126Y-4.8772
T4
X4.5079Y-3.8219
X4.5367Y-3.2763
X4.5643Y-1.6398
X4.5715Y-2.1853
X4.5787Y-2.7308
X4.6063Y-3.8219
X4.6352Y-3.2763
X4.6627Y-1.6398
X4.6699Y-2.1853
X4.6772Y-2.7308
X4.7047Y-3.8219
X4.7336Y-3.2763
X4.7612Y-1.6398
X4.7684Y-2.1853
X4.7756Y-2.7308
X4.8031Y-3.8219
X4.832Y-3.2763
X5.187Y-4.7075
X5.187Y-4.8059
X5.187Y-4.9043
X5.3354Y-2.2933
X5.3682Y-1.6293
X5.4338Y-2.2933
X5.4667Y-1.6293
X5.5323Y-2.2933
X5.5651Y-1.6293
X5.6307Y-2.2933
X5.6635Y-1.6293
X5.7291Y-2.2933
X6.1853Y-1.6345
X6.2181Y-2.2933
X6.2837Y-1.6345
X6.3165Y-2.2933
X6.3821Y-1.6345
X6.4149Y-2.2933
X6.4806Y-1.6345
X6.5134Y-2.2933
X6.9531Y-2.9484
X6.9531Y-3.6106
X6.9531Y-4.2728
X6.9531Y-4.935
X7.0023Y-1.624
X7.0023Y-2.2862
X7.0515Y-2.9484
X7.0515Y-3.6106
X7.0515Y-4.2728
X7.0515Y-4.935
X7.1008Y-1.624
X7.1008Y-2.2862
X7.15Y-2.9484
X7.15Y-3.6106
X7.15Y-4.2728
X7.15Y-4.935
X7.1992Y-1.624
X7.1992Y-2.2862
X7.2484Y-2.9484
X7.2484Y-3.6106
X7.2484Y-4.2728
X7.2484Y-4.935
X7.2976Y-1.624
X7.2976Y-2.2862
X7.3468Y-2.9484
X7.3468Y-3.6106
X7.3468Y-4.2728
X7.3468Y-4.935
T5
X4.6424Y-4.3674
X4.6496Y-4.9129
X4.7408Y-4.3674
X4.748Y-4.9129
M30
