%TF.GenerationSoftware,KiCad,Pcbnew,8.0.5*%
%TF.CreationDate,2025-04-21T16:13:32+05:30*%
%TF.ProjectId,arc,6172632e-6b69-4636-9164-5f7063625858,rev?*%
%TF.SameCoordinates,Original*%
%TF.FileFunction,Soldermask,Bot*%
%TF.FilePolarity,Negative*%
%FSLAX46Y46*%
G04 Gerber Fmt 4.6, Leading zero omitted, Abs format (unit mm)*
G04 Created by KiCad (PCBNEW 8.0.5) date 2025-04-21 16:13:32*
%MOMM*%
%LPD*%
G01*
G04 APERTURE LIST*
G04 Aperture macros list*
%AMRoundRect*
0 Rectangle with rounded corners*
0 $1 Rounding radius*
0 $2 $3 $4 $5 $6 $7 $8 $9 X,Y pos of 4 corners*
0 Add a 4 corners polygon primitive as box body*
4,1,4,$2,$3,$4,$5,$6,$7,$8,$9,$2,$3,0*
0 Add four circle primitives for the rounded corners*
1,1,$1+$1,$2,$3*
1,1,$1+$1,$4,$5*
1,1,$1+$1,$6,$7*
1,1,$1+$1,$8,$9*
0 Add four rect primitives between the rounded corners*
20,1,$1+$1,$2,$3,$4,$5,0*
20,1,$1+$1,$4,$5,$6,$7,0*
20,1,$1+$1,$6,$7,$8,$9,0*
20,1,$1+$1,$8,$9,$2,$3,0*%
G04 Aperture macros list end*
%ADD10RoundRect,0.250000X-0.600000X-0.725000X0.600000X-0.725000X0.600000X0.725000X-0.600000X0.725000X0*%
%ADD11O,1.700000X1.950000*%
%ADD12RoundRect,0.250000X-0.600000X-0.750000X0.600000X-0.750000X0.600000X0.750000X-0.600000X0.750000X0*%
%ADD13O,1.700000X2.000000*%
%ADD14O,3.048800X1.626400*%
%ADD15C,1.600000*%
%ADD16O,1.600000X1.600000*%
%ADD17RoundRect,0.250000X-0.725000X0.600000X-0.725000X-0.600000X0.725000X-0.600000X0.725000X0.600000X0*%
%ADD18O,1.950000X1.700000*%
G04 APERTURE END LIST*
D10*
%TO.C,J3*%
X136353083Y-41383333D03*
D11*
X138853083Y-41383333D03*
X141353083Y-41383333D03*
X143853083Y-41383333D03*
%TD*%
D12*
%TO.C,J6*%
X118099998Y-124787500D03*
D13*
X120599998Y-124787500D03*
%TD*%
D10*
%TO.C,J5*%
X177859250Y-58070000D03*
D11*
X180359250Y-58070000D03*
X182859250Y-58070000D03*
X185359250Y-58070000D03*
%TD*%
D10*
%TO.C,J10*%
X177859250Y-41250000D03*
D11*
X180359250Y-41250000D03*
X182859250Y-41250000D03*
X185359250Y-41250000D03*
%TD*%
D10*
%TO.C,J15*%
X116116666Y-55506249D03*
D11*
X118616666Y-55506249D03*
X121116666Y-55506249D03*
%TD*%
D10*
%TO.C,J2*%
X176609250Y-108530000D03*
D11*
X179109250Y-108530000D03*
X181609250Y-108530000D03*
X184109250Y-108530000D03*
X186609250Y-108530000D03*
%TD*%
D14*
%TO.C,U1*%
X140020000Y-78160000D03*
X140020000Y-80700000D03*
X140020000Y-111180000D03*
X162880000Y-78160000D03*
X165420000Y-78160000D03*
X162880000Y-93400000D03*
X165420000Y-93400000D03*
X162880000Y-111180000D03*
X165420000Y-111180000D03*
X162880000Y-113720000D03*
X165420000Y-113720000D03*
X162880000Y-108640000D03*
X165420000Y-108640000D03*
X162880000Y-101020000D03*
X165420000Y-101020000D03*
X162880000Y-123880000D03*
X165420000Y-123880000D03*
X162880000Y-121340000D03*
X165420000Y-121340000D03*
X162880000Y-118800000D03*
X165420000Y-118800000D03*
X140020000Y-116260000D03*
X140020000Y-118800000D03*
X140020000Y-121340000D03*
X140020000Y-108640000D03*
X140020000Y-113720000D03*
X140020000Y-106100000D03*
X162880000Y-116260000D03*
X165420000Y-116260000D03*
X162880000Y-106100000D03*
X165420000Y-106100000D03*
X162880000Y-103560000D03*
X165420000Y-103560000D03*
X162880000Y-98480000D03*
X165420000Y-98480000D03*
X162880000Y-95940000D03*
X165420000Y-95940000D03*
X162880000Y-90860000D03*
X165420000Y-90860000D03*
X162880000Y-83240000D03*
X165420000Y-83240000D03*
X162880000Y-80700000D03*
X165420000Y-80700000D03*
X140020000Y-98480000D03*
X140020000Y-101020000D03*
X140020000Y-103560000D03*
X140020000Y-93400000D03*
X140020000Y-95940000D03*
X140020000Y-88320000D03*
X140020000Y-90860000D03*
X140020000Y-83240000D03*
X140020000Y-85780000D03*
X162880000Y-88320000D03*
X165420000Y-88320000D03*
X162880000Y-85780000D03*
X165420000Y-85780000D03*
X140020000Y-123880000D03*
%TD*%
D10*
%TO.C,J14*%
X157106166Y-41516666D03*
D11*
X159606166Y-41516666D03*
X162106166Y-41516666D03*
X164606166Y-41516666D03*
%TD*%
D10*
%TO.C,J0*%
X176609250Y-74890000D03*
D11*
X179109250Y-74890000D03*
X181609250Y-74890000D03*
X184109250Y-74890000D03*
X186609250Y-74890000D03*
%TD*%
D15*
%TO.C,R1*%
X131200000Y-100020000D03*
D16*
X131200000Y-110180000D03*
%TD*%
D10*
%TO.C,J16*%
X116299999Y-69362499D03*
D11*
X118799999Y-69362499D03*
X121299999Y-69362499D03*
%TD*%
D10*
%TO.C,J1*%
X176609250Y-91710000D03*
D11*
X179109250Y-91710000D03*
X181609250Y-91710000D03*
X184109250Y-91710000D03*
X186609250Y-91710000D03*
%TD*%
D10*
%TO.C,J17*%
X176609250Y-125350000D03*
D11*
X179109250Y-125350000D03*
X181609250Y-125350000D03*
X184109250Y-125350000D03*
X186609250Y-125350000D03*
%TD*%
D10*
%TO.C,J12*%
X157939500Y-58250000D03*
D11*
X160439500Y-58250000D03*
X162939500Y-58250000D03*
X165439500Y-58250000D03*
%TD*%
D10*
%TO.C,J9*%
X114500000Y-97074999D03*
D11*
X117000000Y-97074999D03*
X119500000Y-97074999D03*
X122000000Y-97074999D03*
%TD*%
D10*
%TO.C,J8*%
X135519750Y-58250000D03*
D11*
X138019750Y-58250000D03*
X140519750Y-58250000D03*
X143019750Y-58250000D03*
X145519750Y-58250000D03*
%TD*%
D10*
%TO.C,J11*%
X115233332Y-83218749D03*
D11*
X117733332Y-83218749D03*
X120233332Y-83218749D03*
X122733332Y-83218749D03*
%TD*%
D12*
%TO.C,J7*%
X117916665Y-110931249D03*
D13*
X120416665Y-110931249D03*
%TD*%
D17*
%TO.C,J4*%
X131750000Y-119570000D03*
D18*
X131750000Y-122070000D03*
X131750000Y-124570000D03*
%TD*%
D10*
%TO.C,J13*%
X115933333Y-41649999D03*
D11*
X118433333Y-41649999D03*
X120933333Y-41649999D03*
%TD*%
M02*
